<?xml version="1.0" encoding="UTF-8"?>
<!DOCTYPE svg PUBLIC "-//W3C//DTD SVG 1.1//EN" "http://www.w3.org/Graphics/SVG/1.1/DTD/svg11.dtd">
<svg xmlns="http://www.w3.org/2000/svg" version="1.1" width="4056px" height="234px" style="shape-rendering:geometricPrecision; text-rendering:geometricPrecision; image-rendering:optimizeQuality; fill-rule:evenodd; clip-rule:evenodd" xmlns:xlink="http://www.w3.org/1999/xlink">
<g><path style="opacity:0.924" fill="#010200" d="M 211.5,79.5 C 209.745,80.0722 208.078,80.9055 206.5,82C 213.492,82.4996 220.492,82.6663 227.5,82.5C 231.161,102.156 226.494,119.322 213.5,134C 206.614,139.612 198.948,143.946 190.5,147C 187.518,147.498 184.518,147.665 181.5,147.5C 180.198,162.438 173.864,174.772 162.5,184.5C 155.623,189.518 147.957,192.851 139.5,194.5C 118.167,195.167 96.8333,195.833 75.5,196.5C 71.523,203.266 68.023,210.266 65,217.5C 55.1078,228.745 43.6078,230.578 30.5,223C 22.5618,214.812 20.5618,205.312 24.5,194.5C 29.2396,182.725 35.5729,171.892 43.5,162C 42.3399,139.573 42.1732,117.073 43,94.5C 46.279,84.595 51.779,75.595 59.5,67.5C 67.4234,61.3725 75.9234,57.3725 85,55.5C 86.1074,55.5852 87.1074,55.9186 88,56.5C 89.2099,51.1404 90.5432,45.807 92,40.5C 94.26,37.0299 96.0934,33.3633 97.5,29.5C 98.2389,29.631 98.9056,29.4643 99.5,29C 102.406,24.6074 105.74,20.7741 109.5,17.5C 113.587,15.9582 117.587,14.1248 121.5,12C 132.592,8.92178 143.925,7.75511 155.5,8.5C 155.334,15.175 155.5,21.8417 156,28.5C 165.81,16.892 178.31,10.392 193.5,9C 204.828,8.50014 216.162,8.33348 227.5,8.5C 227.899,23.877 227.399,39.2104 226,54.5C 224.302,59.2871 222.302,63.9538 220,68.5C 216.896,72.0854 214.063,75.7521 211.5,79.5 Z"/></g>
<g><path style="opacity:0.004" fill="#000000" d="M 109.5,17.5 C 108.833,16.1667 108.833,16.1667 109.5,17.5 Z"/></g>
<g><path style="opacity:0.004" fill="#000000" d="M 158.5,22.5 C 159.833,23.1667 159.833,23.1667 158.5,22.5 Z"/></g>
<g><path style="opacity:1" fill="#139e0d" d="M 212.5,47.5 C 208.132,64.0344 197.799,74.8677 181.5,80C 176.845,80.4992 172.179,80.6658 167.5,80.5C 163.833,80.5 160.167,80.5 156.5,80.5C 157.055,76.9878 156.388,73.9878 154.5,71.5C 154.462,54.0754 161.462,40.2421 175.5,30C 179.015,27.217 183.015,25.717 187.5,25.5C 196.113,24.5579 204.779,24.2246 213.5,24.5C 213.597,32.1912 213.263,39.8579 212.5,47.5 Z"/></g>
<g><path style="opacity:1" fill="#139d0d" d="M 140.5,53.5 C 140.369,59.727 138.535,65.3936 135,70.5C 130.932,76.0703 126.098,80.7369 120.5,84.5C 115.042,86.6135 109.376,87.6135 103.5,87.5C 103.5,76.8333 103.5,66.1667 103.5,55.5C 105.207,42.952 111.541,33.452 122.5,27C 124.345,25.872 126.345,25.372 128.5,25.5C 132.434,24.6403 136.434,24.307 140.5,24.5C 140.5,34.1667 140.5,43.8333 140.5,53.5 Z"/></g>
<g><path style="opacity:1" fill="#073a08" d="M 212.5,47.5 C 213.263,39.8579 213.597,32.1912 213.5,24.5C 204.779,24.2246 196.113,24.5579 187.5,25.5C 187.611,24.8826 187.944,24.3826 188.5,24C 197.16,23.5002 205.827,23.3336 214.5,23.5C 214.666,30.5079 214.5,37.5079 214,44.5C 213.768,45.7375 213.268,46.7375 212.5,47.5 Z"/></g>
<g><path style="opacity:0.004" fill="#000000" d="M 97.5,29.5 C 96.8333,28.1667 96.8333,28.1667 97.5,29.5 Z"/></g>
<g><path style="opacity:1" fill="#063304" d="M 140.5,53.5 C 140.5,43.8333 140.5,34.1667 140.5,24.5C 136.434,24.307 132.434,24.6403 128.5,25.5C 128.611,24.8826 128.944,24.3826 129.5,24C 133.486,23.5012 137.486,23.3345 141.5,23.5C 141.827,33.6806 141.494,43.6806 140.5,53.5 Z"/></g>
<g><path style="opacity:0.004" fill="#000000" d="M 307.5,51.5 C 306.833,50.1667 306.833,50.1667 307.5,51.5 Z"/></g>
<g><path style="opacity:0.004" fill="#000000" d="M 334.5,50.5 C 335.833,51.1667 335.833,51.1667 334.5,50.5 Z"/></g>
<g><path style="opacity:0.004" fill="#000000" d="M 387.5,51.5 C 386.833,50.1667 386.833,50.1667 387.5,51.5 Z"/></g>
<g><path style="opacity:0.004" fill="#000000" d="M 411.5,50.5 C 412.833,51.1667 412.833,51.1667 411.5,50.5 Z"/></g>
<g><path style="opacity:0.004" fill="#000000" d="M 600.5,51.5 C 599.833,50.1667 599.833,50.1667 600.5,51.5 Z"/></g>
<g><path style="opacity:0.004" fill="#000000" d="M 625.5,50.5 C 626.833,51.1667 626.833,51.1667 625.5,50.5 Z"/></g>
<g><path style="opacity:0.004" fill="#000000" d="M 897.5,51.5 C 896.833,50.1667 896.833,50.1667 897.5,51.5 Z"/></g>
<g><path style="opacity:0.004" fill="#000000" d="M 1014.5,51.5 C 1013.83,50.1667 1013.83,50.1667 1014.5,51.5 Z"/></g>
<g><path style="opacity:0.004" fill="#000000" d="M 1038.5,50.5 C 1039.83,51.1667 1039.83,51.1667 1038.5,50.5 Z"/></g>
<g><path style="opacity:0.004" fill="#000000" d="M 1746.5,51.5 C 1745.83,50.1667 1745.83,50.1667 1746.5,51.5 Z"/></g>
<g><path style="opacity:0.004" fill="#000000" d="M 1771.5,50.5 C 1772.83,51.1667 1772.83,51.1667 1771.5,50.5 Z"/></g>
<g><path style="opacity:0.937" fill="#375416" d="M 1935.5,60.5 C 1935.39,62.3786 1935.89,62.7119 1937,61.5C 1937.83,63 1939,64.1667 1940.5,65C 1939.17,66.6667 1937.83,68.3333 1936.5,70C 1936.83,70.3333 1937.17,70.6667 1937.5,71C 1936,72.7972 1934.5,74.6305 1933,76.5C 1932.52,77.448 1932.35,78.448 1932.5,79.5C 1931.11,80.8993 1930.11,82.5659 1929.5,84.5C 1923.42,81.9489 1917.42,79.1155 1911.5,76C 1903.3,73.7685 1894.97,73.1018 1886.5,74C 1883.36,74.9859 1880.53,76.4859 1878,78.5C 1876.89,77.2881 1876.39,77.6214 1876.5,79.5C 1875.5,79.4142 1874.67,79.7476 1874,80.5C 1869.45,87.135 1869.62,93.635 1874.5,100C 1879.45,103.041 1884.78,105.207 1890.5,106.5C 1906.79,107.368 1921.29,112.701 1934,122.5C 1940.36,129.749 1943.2,138.249 1942.5,148C 1942.61,166.97 1933.44,179.803 1915,186.5C 1888.07,193.746 1863.41,189.413 1841,173.5C 1840.33,172.167 1840.33,170.833 1841,169.5C 1844.92,163.994 1848.59,158.327 1852,152.5C 1855.39,154.112 1858.55,156.112 1861.5,158.5C 1874.64,165.149 1888.64,167.315 1903.5,165C 1915.96,161.545 1920.13,153.711 1916,141.5C 1914.5,139.333 1912.67,137.5 1910.5,136C 1898.61,132.847 1886.61,130.18 1874.5,128C 1852.41,121.486 1843.41,105.986 1847.5,81.5C 1851.63,66.2076 1861.29,56.3743 1876.5,52C 1887.97,50.2345 1899.47,50.0678 1911,51.5C 1915.71,52.7347 1920.21,54.4014 1924.5,56.5C 1925.09,56.2907 1925.59,55.9574 1926,55.5C 1928.82,57.8288 1931.99,59.4955 1935.5,60.5 Z"/></g>
<g><path style="opacity:0.004" fill="#000000" d="M 2354.5,50.5 C 2355.83,51.1667 2355.83,51.1667 2354.5,50.5 Z"/></g>
<g><path style="opacity:0.004" fill="#000000" d="M 2584.5,51.5 C 2583.83,50.1667 2583.83,50.1667 2584.5,51.5 Z"/></g>
<g><path style="opacity:0.004" fill="#000000" d="M 2711.5,50.5 C 2712.83,51.1667 2712.83,51.1667 2711.5,50.5 Z"/></g>
<g><path style="opacity:0.004" fill="#000000" d="M 2735.5,51.5 C 2734.83,50.1667 2734.83,50.1667 2735.5,51.5 Z"/></g>
<g><path style="opacity:0.004" fill="#000000" d="M 2790.5,51.5 C 2789.83,50.1667 2789.83,50.1667 2790.5,51.5 Z"/></g>
<g><path style="opacity:0.004" fill="#000000" d="M 2813.5,50.5 C 2814.83,51.1667 2814.83,51.1667 2813.5,50.5 Z"/></g>
<g><path style="opacity:0.935" fill="#375516" d="M 3693.5,150.5 C 3689.3,154.864 3685.3,159.364 3681.5,164C 3697.5,164.5 3713.5,164.667 3729.5,164.5C 3729.5,172.167 3729.5,179.833 3729.5,187.5C 3702.83,187.5 3676.17,187.5 3649.5,187.5C 3649.5,180.167 3649.5,172.833 3649.5,165.5C 3664.86,146.457 3679.53,126.79 3693.5,106.5C 3702.15,99.0166 3704.65,89.6833 3701,78.5C 3694.36,73.1439 3687.2,72.3106 3679.5,76C 3678.18,76.8159 3677.51,77.9826 3677.5,79.5C 3676.62,79.3691 3675.96,79.7025 3675.5,80.5C 3674.04,83.9763 3672.71,87.4763 3671.5,91C 3663.51,91.4997 3655.51,91.6664 3647.5,91.5C 3647.94,82.6323 3650.27,74.2989 3654.5,66.5C 3657.42,63.6247 3660.08,60.6247 3662.5,57.5C 3667.47,54.5201 3672.8,52.3534 3678.5,51C 3715.77,46.7674 3731.77,62.9341 3726.5,99.5C 3724.04,106.62 3720.71,113.286 3716.5,119.5C 3708.45,129.552 3700.78,139.886 3693.5,150.5 Z"/></g>
<g><path style="opacity:0.94" fill="#375516" d="M 3777.5,50.5 C 3787.55,50.1687 3797.55,50.6687 3807.5,52C 3818.02,56.1934 3825.02,63.6934 3828.5,74.5C 3829.83,104.5 3829.83,134.5 3828.5,164.5C 3824.21,177.786 3815.21,185.786 3801.5,188.5C 3788.74,190.669 3776.57,189.002 3765,183.5C 3757.15,178.151 3752.32,170.818 3750.5,161.5C 3749.17,133.5 3749.17,105.5 3750.5,77.5C 3751.51,71.3178 3754.18,65.9845 3758.5,61.5C 3763.77,55.7668 3770.1,52.1001 3777.5,50.5 Z M 3782.5,73.5 C 3788.91,72.7097 3794.91,73.7097 3800.5,76.5C 3803.58,80.2685 3805.41,84.6018 3806,89.5C 3806.67,109.5 3806.67,129.5 3806,149.5C 3804,163.8 3796,168.8 3782,164.5C 3777.31,161.444 3774.64,157.11 3774,151.5C 3773.33,130.167 3773.33,108.833 3774,87.5C 3775.1,81.6156 3777.93,76.9489 3782.5,73.5 Z"/></g>
<g><path style="opacity:0.935" fill="#375516" d="M 3903.5,141.5 C 3899.74,144.929 3896.74,148.929 3894.5,153.5C 3892.18,154.802 3890.84,156.802 3890.5,159.5C 3888.32,160.3 3886.65,161.8 3885.5,164C 3900.83,164.333 3916.17,164.667 3931.5,165C 3932,165.5 3932.5,166 3933,166.5C 3933.5,173.492 3933.67,180.492 3933.5,187.5C 3906.17,187.5 3878.83,187.5 3851.5,187.5C 3851.33,180.492 3851.5,173.492 3852,166.5C 3855.25,163.643 3857.75,160.31 3859.5,156.5C 3872.28,141.715 3883.94,126.049 3894.5,109.5C 3901.36,103.452 3905.36,95.7853 3906.5,86.5C 3906.37,84.6251 3906.04,82.7918 3905.5,81C 3905.16,79.9701 3904.5,79.4701 3903.5,79.5C 3903.49,77.9826 3902.82,76.8159 3901.5,76C 3886.39,70.4372 3877.73,75.6039 3875.5,91.5C 3867.17,91.5 3858.83,91.5 3850.5,91.5C 3851.02,79.6717 3855.02,69.3383 3862.5,60.5C 3874.14,51.0648 3887.48,47.8981 3902.5,51C 3907.37,51.8481 3911.87,53.6814 3916,56.5C 3924.56,60.8304 3929.56,68.1637 3931,78.5C 3932.64,90.4964 3930.48,101.663 3924.5,112C 3917.64,122.012 3910.64,131.846 3903.5,141.5 Z"/></g>
<g><path style="opacity:0.933" fill="#365416" d="M 4020.5,110.5 C 4017.72,112.067 4015.05,113.9 4012.5,116C 4017.87,119.495 4022.53,123.662 4026.5,128.5C 4032.72,145.163 4031.55,161.163 4023,176.5C 4010.5,188.314 3995.67,192.481 3978.5,189C 3958.99,183.47 3948.33,170.637 3946.5,150.5C 3954.84,150.334 3963.17,150.5 3971.5,151C 3973.04,153.624 3974.2,156.457 3975,159.5C 3980.28,165.17 3986.78,167.004 3994.5,165C 3997.71,164.088 4000.04,162.255 4001.5,159.5C 4005.47,150.592 4005.3,141.592 4001,132.5C 3994.4,128.813 3987.23,127.479 3979.5,128.5C 3979.5,120.5 3979.5,112.5 3979.5,104.5C 3984.84,104.666 3990.18,104.499 3995.5,104C 4000.8,100.572 4003.14,95.5718 4002.5,89C 4002.27,76.9354 3996.27,72.1021 3984.5,74.5C 3980.53,76.2638 3977.53,79.0972 3975.5,83C 3975.96,83.414 3976.29,83.914 3976.5,84.5C 3975.1,86.1303 3974.1,87.9637 3973.5,90C 3965.83,90.6667 3958.17,90.6667 3950.5,90C 3949.34,86.7271 3949.34,83.3938 3950.5,80C 3952.13,73.8976 3954.8,68.3976 3958.5,63.5C 3960.5,63.5 3961.5,62.5 3961.5,60.5C 3963.5,60.5 3964.5,59.5 3964.5,57.5C 3967.68,56.3386 3971.01,54.5053 3974.5,52C 3985.17,50 3995.83,50 4006.5,52C 4017.68,56.5207 4024.51,64.6873 4027,76.5C 4027.67,83.1667 4027.67,89.8333 4027,96.5C 4025.48,101.584 4023.32,106.251 4020.5,110.5 Z"/></g>
<g><path style="opacity:0.948" fill="#375416" d="M 307.5,51.5 C 316.5,51.5 325.5,51.5 334.5,51.5C 337.04,58.0148 340.373,64.0148 344.5,69.5C 348.535,77.8888 353.035,86.5554 358,95.5C 359.067,97.6917 360.567,99.3583 362.5,100.5C 362.386,103.216 363.386,105.216 365.5,106.5C 365.421,107.93 365.754,109.264 366.5,110.5C 367.824,112.942 369.491,114.942 371.5,116.5C 371.263,117.791 371.596,118.791 372.5,119.5C 375.83,127.481 379.83,134.481 384.5,140.5C 384.608,142.783 385.441,144.783 387,146.5C 387.5,114.835 387.667,83.1684 387.5,51.5C 395.5,51.5 403.5,51.5 411.5,51.5C 411.5,96.8333 411.5,142.167 411.5,187.5C 402.5,187.5 393.5,187.5 384.5,187.5C 380.411,178.493 375.411,170.16 369.5,162.5C 368.454,159.263 367.121,156.096 365.5,153C 361.827,147.273 358.161,141.606 354.5,136C 354.833,135.667 355.167,135.333 355.5,135C 354.167,133.333 352.833,131.667 351.5,130C 352.712,128.893 352.379,128.393 350.5,128.5C 347.228,120.941 343.228,113.941 338.5,107.5C 336.628,103.073 334.462,98.7393 332,94.5C 331.5,125.498 331.333,156.498 331.5,187.5C 323.5,187.5 315.5,187.5 307.5,187.5C 307.5,142.167 307.5,96.8333 307.5,51.5 Z"/></g>
<g><path style="opacity:0.93" fill="#375416" d="M 897.5,51.5 C 919.503,51.3334 941.503,51.5 963.5,52C 986.34,59.3253 996.84,75.492 995,100.5C 991.573,119.593 980.406,131.093 961.5,135C 948.504,135.5 935.504,135.667 922.5,135.5C 922.5,152.833 922.5,170.167 922.5,187.5C 914.167,187.5 905.833,187.5 897.5,187.5C 897.5,142.167 897.5,96.8333 897.5,51.5 Z M 965.5,82.5 C 966.75,82.5774 967.583,83.244 968,84.5C 968.056,87.7802 968.889,90.7802 970.5,93.5C 969.86,102.3 965.527,108.467 957.5,112C 945.838,112.5 934.171,112.667 922.5,112.5C 922.5,100.167 922.5,87.8333 922.5,75.5C 934.505,75.3335 946.505,75.5001 958.5,76C 962.027,77.0315 964.361,79.1982 965.5,82.5 Z"/></g>
<g><path style="opacity:0.945" fill="#365517" d="M 1014.5,51.5 C 1022.5,51.5 1030.5,51.5 1038.5,51.5C 1038.33,87.8349 1038.5,124.168 1039,160.5C 1039.31,161.766 1039.81,162.933 1040.5,164C 1044.15,164.499 1047.82,164.665 1051.5,164.5C 1051.82,172.752 1051.48,180.919 1050.5,189C 1046.5,189.667 1042.5,189.667 1038.5,189C 1033.33,188.062 1028.33,186.562 1023.5,184.5C 1021.87,182.37 1020.04,180.37 1018,178.5C 1016.73,176.286 1015.73,173.953 1015,171.5C 1014.5,131.501 1014.33,91.5014 1014.5,51.5 Z"/></g>
<g><path style="opacity:0.92" fill="#375416" d="M 1746.5,51.5 C 1754.83,51.5 1763.17,51.5 1771.5,51.5C 1771.5,96.8333 1771.5,142.167 1771.5,187.5C 1763.17,187.5 1754.83,187.5 1746.5,187.5C 1746.66,184.813 1746.5,182.146 1746,179.5C 1737.47,188.774 1726.97,191.774 1714.5,188.5C 1702.43,184.395 1694.93,176.061 1692,163.5C 1690,147.167 1690,130.833 1692,114.5C 1693.53,109.698 1695.37,105.032 1697.5,100.5C 1710.8,86.675 1725.8,84.8416 1742.5,95C 1744.05,96.214 1745.22,97.714 1746,99.5C 1746.5,83.5035 1746.67,67.5035 1746.5,51.5 Z M 1727.5,110.5 C 1732.01,110.693 1736.34,111.693 1740.5,113.5C 1743.18,115.532 1744.85,118.199 1745.5,121.5C 1746.83,133.167 1746.83,144.833 1745.5,156.5C 1744.8,158.672 1743.8,160.672 1742.5,162.5C 1736.45,167.515 1729.78,168.348 1722.5,165C 1719.46,162.407 1717.29,159.24 1716,155.5C 1715.21,144.139 1715.38,132.806 1716.5,121.5C 1717.84,119.141 1719.17,116.807 1720.5,114.5C 1723.27,113.602 1725.6,112.269 1727.5,110.5 Z"/></g>
<g><path style="opacity:0.932" fill="#365416" d="M 2584.5,51.5 C 2592.83,51.5 2601.17,51.5 2609.5,51.5C 2609.33,67.1702 2609.5,82.8369 2610,98.5C 2618.38,89.8246 2628.55,86.6579 2640.5,89C 2645.92,91.2921 2650.92,94.1255 2655.5,97.5C 2659.96,103.013 2662.79,109.347 2664,116.5C 2664.67,131.5 2664.67,146.5 2664,161.5C 2657.29,185.278 2641.79,193.612 2617.5,186.5C 2614.91,184.62 2612.41,182.62 2610,180.5C 2609.5,182.81 2609.34,185.143 2609.5,187.5C 2601.17,187.5 2592.83,187.5 2584.5,187.5C 2584.5,142.167 2584.5,96.8333 2584.5,51.5 Z M 2620.5,110.5 C 2631.84,110.074 2638.34,115.074 2640,125.5C 2640.67,134.5 2640.67,143.5 2640,152.5C 2639.2,156.769 2637.37,160.602 2634.5,164C 2631.78,164.797 2629.28,165.963 2627,167.5C 2625.33,166.167 2623.67,166.167 2622,167.5C 2616.56,166.564 2612.73,163.564 2610.5,158.5C 2609.17,145.5 2609.17,132.5 2610.5,119.5C 2611.24,117.253 2612.58,115.42 2614.5,114C 2617.02,113.414 2619.02,112.247 2620.5,110.5 Z"/></g>
<g><path style="opacity:0.859" fill="#365517" d="M 2711.5,51.5 C 2711.5,59.5 2711.5,67.5 2711.5,75.5C 2703.17,75.5 2694.83,75.5 2686.5,75.5C 2686.5,67.5 2686.5,59.5 2686.5,51.5C 2694.83,51.5 2703.17,51.5 2711.5,51.5 Z"/></g>
<g><path style="opacity:0.923" fill="#375616" d="M 2735.5,51.5 C 2743.83,51.5 2752.17,51.5 2760.5,51.5C 2760.33,88.5015 2760.5,125.502 2761,162.5C 2765.04,163.767 2769.04,165.101 2773,166.5C 2773.67,173.5 2773.67,180.5 2773,187.5C 2772.5,188 2772,188.5 2771.5,189C 2767.83,189.667 2764.17,189.667 2760.5,189C 2756.82,187.806 2752.99,186.972 2749,186.5C 2746.19,185.095 2743.69,183.428 2741.5,181.5C 2739.21,177.752 2737.37,174.085 2736,170.5C 2735.5,130.835 2735.33,91.1681 2735.5,51.5 Z"/></g>
<g><path style="opacity:0.937" fill="#375416" d="M 3068.5,187.5 C 3060.17,187.5 3051.83,187.5 3043.5,187.5C 3043.5,142.167 3043.5,96.8333 3043.5,51.5C 3073.5,51.5 3103.5,51.5 3133.5,51.5C 3133.5,59.5 3133.5,67.5 3133.5,75.5C 3111.92,75.8269 3090.42,75.4936 3069,74.5C 3068.5,86.1619 3068.33,97.8286 3068.5,109.5C 3086.5,109.5 3104.5,109.5 3122.5,109.5C 3122.5,117.167 3122.5,124.833 3122.5,132.5C 3104.5,132.5 3086.5,132.5 3068.5,132.5C 3068.5,150.833 3068.5,169.167 3068.5,187.5 Z"/></g>
<g><path style="opacity:0.004" fill="#000000" d="M 3915.5,53.5 C 3916.83,54.1667 3916.83,54.1667 3915.5,53.5 Z"/></g>
<g><path style="opacity:0.004" fill="#000000" d="M 3967.5,53.5 C 3968.83,54.1667 3968.83,54.1667 3967.5,53.5 Z"/></g>
<g><path style="opacity:1" fill="#375516" d="M 600.5,51.5 C 608.833,51.5 617.167,51.5 625.5,51.5C 625.5,59.5 625.5,67.5 625.5,75.5C 617.167,75.5 608.833,75.5 600.5,75.5C 600.5,67.5 600.5,59.5 600.5,51.5 Z"/></g>
<g><path style="opacity:1" fill="#375616" d="M 2354.5,51.5 C 2354.67,59.1739 2354.5,66.8406 2354,74.5C 2346,75.8333 2338,75.8333 2330,74.5C 2329.5,66.8406 2329.33,59.1739 2329.5,51.5C 2337.83,51.5 2346.17,51.5 2354.5,51.5 Z"/></g>
<g><path style="opacity:1" fill="#375517" d="M 2790.5,51.5 C 2798.17,51.5 2805.83,51.5 2813.5,51.5C 2813.5,59.5 2813.5,67.5 2813.5,75.5C 2805.83,75.5 2798.17,75.5 2790.5,75.5C 2790.5,67.5 2790.5,59.5 2790.5,51.5 Z"/></g>
<g><path style="opacity:0.004" fill="#000000" d="M 977.5,56.5 C 978.833,57.1667 978.833,57.1667 977.5,56.5 Z"/></g>
<g><path style="opacity:0.004" fill="#000000" d="M 3662.5,57.5 C 3661.83,56.1667 3661.83,56.1667 3662.5,57.5 Z"/></g>
<g><path style="opacity:0.004" fill="#000000" d="M 3760.5,56.5 C 3761.83,57.1667 3761.83,57.1667 3760.5,56.5 Z"/></g>
<g><path style="opacity:0.004" fill="#000000" d="M 3964.5,57.5 C 3963.83,56.1667 3963.83,56.1667 3964.5,57.5 Z"/></g>
<g><path style="opacity:0.004" fill="#000000" d="M 1857.5,59.5 C 1858.83,60.1667 1858.83,60.1667 1857.5,59.5 Z"/></g>
<g><path style="opacity:0.004" fill="#000000" d="M 1935.5,59.5 C 1936.83,60.1667 1936.83,60.1667 1935.5,59.5 Z"/></g>
<g><path style="opacity:0.004" fill="#000000" d="M 3862.5,60.5 C 3861.83,59.1667 3861.83,59.1667 3862.5,60.5 Z"/></g>
<g><path style="opacity:0.004" fill="#000000" d="M 3961.5,60.5 C 3960.83,59.1667 3960.83,59.1667 3961.5,60.5 Z"/></g>
<g><path style="opacity:0.004" fill="#000000" d="M 566.5,60.5 C 567.833,61.1667 567.833,61.1667 566.5,60.5 Z"/></g>
<g><path style="opacity:0.004" fill="#000000" d="M 1302.5,60.5 C 1303.83,61.1667 1303.83,61.1667 1302.5,60.5 Z"/></g>
<g><path style="opacity:0.004" fill="#000000" d="M 2170.5,61.5 C 2169.83,60.1667 2169.83,60.1667 2170.5,61.5 Z"/></g>
<g><path style="opacity:0.004" fill="#000000" d="M 2194.5,60.5 C 2195.83,61.1667 2195.83,61.1667 2194.5,60.5 Z"/></g>
<g><path style="opacity:0.004" fill="#000000" d="M 2840.5,61.5 C 2839.83,60.1667 2839.83,60.1667 2840.5,61.5 Z"/></g>
<g><path style="opacity:0.004" fill="#000000" d="M 3924.5,60.5 C 3925.83,61.1667 3925.83,61.1667 3924.5,60.5 Z"/></g>
<g><path style="opacity:0.931" fill="#375516" d="M 566.5,61.5 C 566.5,71.1667 566.5,80.8333 566.5,90.5C 570.833,90.5 575.167,90.5 579.5,90.5C 579.5,97.8333 579.5,105.167 579.5,112.5C 575.233,112.797 571.066,112.464 567,111.5C 566.188,128.698 566.354,145.865 567.5,163C 567.905,163.945 568.572,164.612 569.5,165C 572.817,165.498 576.15,165.665 579.5,165.5C 579.5,173.5 579.5,181.5 579.5,189.5C 571.363,189.874 563.363,189.04 555.5,187C 549.546,184.214 545.546,179.714 543.5,173.5C 542.667,152.841 542.167,132.175 542,111.5C 538.943,112.451 535.777,112.784 532.5,112.5C 532.5,105.167 532.5,97.8333 532.5,90.5C 535.833,90.5 539.167,90.5 542.5,90.5C 542.5,80.8333 542.5,71.1667 542.5,61.5C 550.5,61.5 558.5,61.5 566.5,61.5 Z"/></g>
<g><path style="opacity:0.944" fill="#375516" d="M 1302.5,61.5 C 1302.5,71.1667 1302.5,80.8333 1302.5,90.5C 1307.17,90.5 1311.83,90.5 1316.5,90.5C 1316.8,97.5581 1316.46,104.558 1315.5,111.5C 1311.28,112.798 1307.12,112.798 1303,111.5C 1302.33,128.167 1302.33,144.833 1303,161.5C 1303.83,163 1305,164.167 1306.5,165C 1309.82,165.498 1313.15,165.665 1316.5,165.5C 1316.82,173.42 1316.48,181.253 1315.5,189C 1305.29,190.296 1295.62,188.796 1286.5,184.5C 1281.27,178.953 1278.43,172.287 1278,164.5C 1277.67,146.833 1277.33,129.167 1277,111.5C 1274.33,112.833 1271.67,112.833 1269,111.5C 1268.5,104.508 1268.33,97.5079 1268.5,90.5C 1272.05,90.9051 1275.38,90.4051 1278.5,89C 1277.17,80 1277.17,71 1278.5,62C 1286.49,61.5003 1294.49,61.3336 1302.5,61.5 Z"/></g>
<g><path style="opacity:0.004" fill="#000000" d="M 1854.5,62.5 C 1855.83,63.1667 1855.83,63.1667 1854.5,62.5 Z"/></g>
<g><path style="opacity:0.945" fill="#375516" d="M 2170.5,61.5 C 2178.5,61.5 2186.5,61.5 2194.5,61.5C 2194.5,71.1667 2194.5,80.8333 2194.5,90.5C 2198.83,90.5 2203.17,90.5 2207.5,90.5C 2207.5,97.8333 2207.5,105.167 2207.5,112.5C 2203.23,112.797 2199.07,112.464 2195,111.5C 2194.22,129.191 2194.39,146.858 2195.5,164.5C 2199.45,165.272 2203.45,165.605 2207.5,165.5C 2207.5,173.5 2207.5,181.5 2207.5,189.5C 2199.36,189.874 2191.36,189.04 2183.5,187C 2177.12,184.118 2173.12,179.284 2171.5,172.5C 2170.67,152.175 2170.17,131.842 2170,111.5C 2166.94,112.451 2163.78,112.784 2160.5,112.5C 2160.5,105.167 2160.5,97.8333 2160.5,90.5C 2163.83,90.5 2167.17,90.5 2170.5,90.5C 2170.5,80.8333 2170.5,71.1667 2170.5,61.5 Z"/></g>
<g><path style="opacity:0.926" fill="#375416" d="M 2840.5,61.5 C 2848.83,61.5 2857.17,61.5 2865.5,61.5C 2865.5,71.1667 2865.5,80.8333 2865.5,90.5C 2869.5,90.5 2873.5,90.5 2877.5,90.5C 2877.5,97.8333 2877.5,105.167 2877.5,112.5C 2873.56,112.793 2869.73,112.46 2866,111.5C 2865.17,128.843 2865.33,146.176 2866.5,163.5C 2869.88,165.325 2873.54,165.992 2877.5,165.5C 2877.5,173.5 2877.5,181.5 2877.5,189.5C 2868.58,190.047 2859.91,188.88 2851.5,186C 2845.64,182.438 2842.14,177.272 2841,170.5C 2840.67,150.833 2840.33,131.167 2840,111.5C 2836.94,112.451 2833.78,112.784 2830.5,112.5C 2830.5,105.167 2830.5,97.8333 2830.5,90.5C 2833.83,90.5 2837.17,90.5 2840.5,90.5C 2840.5,80.8333 2840.5,71.1667 2840.5,61.5 Z"/></g>
<g><path style="opacity:0.004" fill="#000000" d="M 3958.5,63.5 C 3957.83,62.1667 3957.83,62.1667 3958.5,63.5 Z"/></g>
<g><path style="opacity:0.004" fill="#000000" d="M 344.5,68.5 C 345.833,69.1667 345.833,69.1667 344.5,68.5 Z"/></g>
<g><path style="opacity:0.004" fill="#000000" d="M 1938.5,69.5 C 1939.83,70.1667 1939.83,70.1667 1938.5,69.5 Z"/></g>
<g><path style="opacity:1" fill="#084907" d="M 92.5,106.5 C 93.4157,94.5306 93.749,82.5306 93.5,70.5C 90.1401,70.6159 86.8067,70.9492 83.5,71.5C 83.9175,70.7784 84.5842,70.2784 85.5,70C 88.4816,69.502 91.4816,69.3354 94.5,69.5C 94.6665,81.5046 94.4999,93.5046 94,105.5C 93.6174,106.056 93.1174,106.389 92.5,106.5 Z"/></g>
<g><path style="opacity:1" fill="#139f0d" d="M 92.5,106.5 C 89.902,117.02 83.902,125.02 74.5,130.5C 69.1289,132.878 63.4623,133.878 57.5,133.5C 57.246,120.803 57.5794,108.137 58.5,95.5C 62.2685,82.7312 70.6019,74.7312 83.5,71.5C 86.8067,70.9492 90.1401,70.6159 93.5,70.5C 93.749,82.5306 93.4157,94.5306 92.5,106.5 Z"/></g>
<g><path style="opacity:1" fill="#b5d309" d="M 154.5,71.5 C 156.388,73.9878 157.055,76.9878 156.5,80.5C 160.167,80.5 163.833,80.5 167.5,80.5C 155.913,91.751 144.247,103.084 132.5,114.5C 131.957,114.56 131.624,114.893 131.5,115.5C 138.803,116.497 146.137,116.831 153.5,116.5C 151.122,121.871 150.122,127.538 150.5,133.5C 138.12,132.854 126.12,133.521 114.5,135.5C 104.113,144.034 94.1134,153.034 84.5,162.5C 91.4684,163.497 98.4684,163.83 105.5,163.5C 103.965,169.042 102.965,174.709 102.5,180.5C 91.1618,180.333 79.8284,180.5 68.5,181C 67.944,181.383 67.6107,181.883 67.5,182.5C 61.4544,189.92 56.9544,198.253 54,207.5C 51.5493,213.089 47.3826,214.922 41.5,213C 40.1859,212.015 39.1859,210.848 38.5,209.5C 38.3354,206.482 38.502,203.482 39,200.5C 41.0553,197.112 42.2219,193.446 42.5,189.5C 45.6642,182.341 49.9976,176.008 55.5,170.5C 56.1174,170.389 56.6174,170.056 57,169.5C 57.4999,157.505 57.6665,145.505 57.5,133.5C 63.4623,133.878 69.1289,132.878 74.5,130.5C 74.1697,137.532 74.503,144.532 75.5,151.5C 83.8492,141.819 92.5159,132.486 101.5,123.5C 103.479,111.88 104.146,99.8799 103.5,87.5C 109.376,87.6135 115.042,86.6135 120.5,84.5C 120.17,91.5316 120.503,98.5316 121.5,105.5C 132.549,94.1193 143.549,82.786 154.5,71.5 Z"/></g>
<g><path style="opacity:0.004" fill="#000000" d="M 600.5,75.5 C 599.833,76.1667 599.833,76.1667 600.5,75.5 Z"/></g>
<g><path style="opacity:0.004" fill="#000000" d="M 350.5,78.5 C 351.833,79.1667 351.833,79.1667 350.5,78.5 Z"/></g>
<g><path style="opacity:0.004" fill="#000000" d="M 3698.5,78.5 C 3699.83,79.1667 3699.83,79.1667 3698.5,78.5 Z"/></g>
<g><path style="opacity:0.004" fill="#000000" d="M 211.5,79.5 C 212.833,80.1667 212.833,80.1667 211.5,79.5 Z"/></g>
<g><path style="opacity:0.004" fill="#000000" d="M 1876.5,79.5 C 1877.83,80.1667 1877.83,80.1667 1876.5,79.5 Z"/></g>
<g><path style="opacity:0.004" fill="#000000" d="M 1932.5,79.5 C 1933.83,80.1667 1933.83,80.1667 1932.5,79.5 Z"/></g>
<g><path style="opacity:0.004" fill="#000000" d="M 3677.5,79.5 C 3678.83,80.1667 3678.83,80.1667 3677.5,79.5 Z"/></g>
<g><path style="opacity:0.004" fill="#000000" d="M 3903.5,79.5 C 3902.83,80.1667 3902.83,80.1667 3903.5,79.5 Z"/></g>
<g><path style="opacity:0.004" fill="#000000" d="M 227.5,81.5 C 228.833,82.1667 228.833,82.1667 227.5,81.5 Z"/></g>
<g><path style="opacity:0.004" fill="#000000" d="M 1929.5,84.5 C 1930.83,85.1667 1930.83,85.1667 1929.5,84.5 Z"/></g>
<g><path style="opacity:0.933" fill="#375416" d="M 514.5,187.5 C 507.167,187.5 499.833,187.5 492.5,187.5C 492.662,185.473 492.495,183.473 492,181.5C 490.823,183.176 489.323,184.509 487.5,185.5C 472.893,191.294 458.559,190.628 444.5,183.5C 437.476,176.965 434.142,168.799 434.5,159C 433.692,147.405 438.192,138.572 448,132.5C 448.333,132.833 448.667,133.167 449,133.5C 453.016,130.944 457.183,129.444 461.5,129C 471.828,128.5 482.161,128.334 492.5,128.5C 492.98,125.315 492.314,122.481 490.5,120C 490.833,119.667 491.167,119.333 491.5,119C 485.309,111.188 477.309,108.688 467.5,111.5C 463.757,112.135 460.423,113.635 457.5,116C 455.866,116.494 454.199,116.66 452.5,116.5C 452.5,114.5 451.5,113.5 449.5,113.5C 445.854,110.521 442.521,107.188 439.5,103.5C 441.846,100.293 444.346,97.9593 447,96.5C 458.987,88.8899 472.154,86.3899 486.5,89C 496.913,91.5271 504.913,96.8604 510.5,105C 512.071,108.011 513.237,111.178 514,114.5C 514.5,138.831 514.667,163.164 514.5,187.5 Z M 491.5,148.5 C 492.65,153.316 492.816,158.316 492,163.5C 490.341,164.831 488.674,166.165 487,167.5C 479.203,168.619 471.37,168.786 463.5,168C 455.941,163.881 454.608,158.214 459.5,151C 470.27,149.904 480.937,149.071 491.5,148.5 Z"/></g>
<g><path style="opacity:0.004" fill="#000000" d="M 531.5,88.5 C 532.833,89.1667 532.833,89.1667 531.5,88.5 Z"/></g>
<g><path style="opacity:0.932" fill="#365416" d="M 801.5,91.5 C 803.499,93.9256 806.332,96.259 810,98.5C 821.678,113.368 826.178,130.368 823.5,149.5C 803.833,149.5 784.167,149.5 764.5,149.5C 765.249,155.664 768.083,160.664 773,164.5C 775.861,165.046 778.527,166.046 781,167.5C 783.667,166.167 786.333,166.167 789,167.5C 795.507,165.459 801.674,162.793 807.5,159.5C 807.5,161.5 808.5,162.5 810.5,162.5C 813.07,165.737 816.07,168.737 819.5,171.5C 820.614,172.723 820.781,174.056 820,175.5C 804.026,189.309 785.859,192.976 765.5,186.5C 760.618,184.567 756.285,181.9 752.5,178.5C 743.574,167.186 739.574,154.186 740.5,139.5C 739.867,125.114 743.534,112.114 751.5,100.5C 753.62,99.5494 755.286,98.0494 756.5,96C 770.801,87.7671 785.801,86.2671 801.5,91.5 Z M 778.5,110.5 C 792.207,110.208 799.54,116.875 800.5,130.5C 788.5,130.5 776.5,130.5 764.5,130.5C 764.33,120.198 768.996,113.532 778.5,110.5 Z"/></g>
<g><path style="opacity:0.93" fill="#375416" d="M 1135.5,97.5 C 1138.08,101.776 1140.75,106.109 1143.5,110.5C 1144.16,113.806 1144.66,117.139 1145,120.5C 1145.5,142.831 1145.67,165.164 1145.5,187.5C 1137.83,187.5 1130.17,187.5 1122.5,187.5C 1122.66,185.473 1122.5,183.473 1122,181.5C 1118.81,185.393 1114.65,187.727 1109.5,188.5C 1097.49,190.952 1086.15,189.452 1075.5,184C 1063.99,172.652 1061.33,159.319 1067.5,144C 1069.95,139.218 1073.45,135.385 1078,132.5C 1078.33,132.833 1078.67,133.167 1079,133.5C 1083.19,131.331 1087.36,129.831 1091.5,129C 1101.83,128.5 1112.16,128.334 1122.5,128.5C 1122.59,123.524 1121.42,118.857 1119,114.5C 1112.61,111.014 1105.77,109.847 1098.5,111C 1093.99,112.38 1089.65,114.213 1085.5,116.5C 1083.49,115.481 1081.49,114.481 1079.5,113.5C 1076.35,110.641 1073.19,107.641 1070,104.5C 1069.81,103.181 1069.97,101.847 1070.5,100.5C 1073.09,99.7457 1074.92,98.079 1076,95.5C 1076.33,95.8333 1076.67,96.1667 1077,96.5C 1088.99,88.8899 1102.15,86.3899 1116.5,89C 1123.34,90.7529 1129.67,93.5862 1135.5,97.5 Z M 1121.5,148.5 C 1122.65,153.65 1122.82,158.984 1122,164.5C 1119.91,165.794 1117.75,166.961 1115.5,168C 1108.17,168.667 1100.83,168.667 1093.5,168C 1086.43,163.804 1085.1,158.304 1089.5,151.5C 1090.38,150.749 1091.38,150.249 1092.5,150C 1102.34,149.83 1112.01,149.33 1121.5,148.5 Z"/></g>
<g><path style="opacity:0.937" fill="#365416" d="M 1234.5,91.5 C 1241.51,96.4801 1246.34,103.147 1249,111.5C 1250.44,136.795 1250.94,162.129 1250.5,187.5C 1242.17,187.5 1233.83,187.5 1225.5,187.5C 1225.67,165.164 1225.5,142.831 1225,120.5C 1224.94,118.09 1223.78,116.756 1221.5,116.5C 1220.55,114.39 1218.88,113.223 1216.5,113C 1211.08,112.161 1205.75,112.494 1200.5,114C 1197.86,115.961 1196.03,118.461 1195,121.5C 1194.5,143.497 1194.33,165.497 1194.5,187.5C 1186.17,187.5 1177.83,187.5 1169.5,187.5C 1169.5,155.167 1169.5,122.833 1169.5,90.5C 1177.83,90.5 1186.17,90.5 1194.5,90.5C 1194.33,93.8499 1194.5,97.1832 1195,100.5C 1198.58,95.1224 1203.41,91.2891 1209.5,89C 1215.17,88.3333 1220.83,88.3333 1226.5,89C 1228.94,90.4456 1231.61,91.2789 1234.5,91.5 Z"/></g>
<g><path style="opacity:0.004" fill="#000000" d="M 1267.5,88.5 C 1268.83,89.1667 1268.83,89.1667 1267.5,88.5 Z"/></g>
<g><path style="opacity:0.93" fill="#375416" d="M 1415.5,100.5 C 1415.76,101.978 1415.43,103.311 1414.5,104.5C 1411.12,108.539 1407.79,112.539 1404.5,116.5C 1403.49,117.828 1402.16,118.828 1400.5,119.5C 1392.24,114.186 1383.24,111.186 1373.5,110.5C 1369.07,111.367 1364.74,112.533 1360.5,114C 1355.88,119.186 1356.88,122.853 1363.5,125C 1373.73,126.826 1384.06,128.16 1394.5,129C 1395.54,130.617 1396.7,130.784 1398,129.5C 1401.38,130.894 1404.55,132.561 1407.5,134.5C 1407.5,136.5 1408.5,137.5 1410.5,137.5C 1417.65,149.032 1418.32,161.032 1412.5,173.5C 1402.39,185.731 1389.39,191.065 1373.5,189.5C 1356.82,189.953 1342.15,184.953 1329.5,174.5C 1331.77,171.615 1333.77,168.615 1335.5,165.5C 1338.54,163.091 1340.88,160.091 1342.5,156.5C 1345.49,157.486 1348.49,158.486 1351.5,159.5C 1353.39,161.443 1355.73,162.943 1358.5,164C 1362.49,164.798 1366.32,165.965 1370,167.5C 1373.47,166.197 1376.97,166.197 1380.5,167.5C 1383.09,165.943 1385.92,164.943 1389,164.5C 1390.48,163.022 1391.98,161.522 1393.5,160C 1392.74,157.931 1392.24,155.764 1392,153.5C 1390.75,152.789 1389.58,151.956 1388.5,151C 1377.67,149.526 1366.83,148.026 1356,146.5C 1337.58,141.34 1330.91,129.34 1336,110.5C 1338.5,102.031 1343.5,96.3644 1351,93.5C 1354.39,91.7755 1357.89,90.2755 1361.5,89C 1369.83,88.3333 1378.17,88.3333 1386.5,89C 1391.02,90.0661 1395.36,91.5661 1399.5,93.5C 1400.09,93.2907 1400.59,92.9574 1401,92.5C 1405.94,94.3361 1410.78,97.0028 1415.5,100.5 Z"/></g>
<g><path style="opacity:0.933" fill="#375416" d="M 1549.5,94.5 C 1549.37,95.2389 1549.54,95.9056 1550,96.5C 1552.03,97.7213 1553.87,99.0546 1555.5,100.5C 1558.53,105.098 1560.7,110.098 1562,115.5C 1562.5,139.498 1562.67,163.498 1562.5,187.5C 1555.17,187.5 1547.83,187.5 1540.5,187.5C 1540.66,185.473 1540.5,183.473 1540,181.5C 1538.1,183.53 1535.94,185.197 1533.5,186.5C 1519.83,190.89 1506.49,190.223 1493.5,184.5C 1487.37,179.248 1483.54,172.581 1482,164.5C 1481.33,160.5 1481.33,156.5 1482,152.5C 1483.4,149.702 1484.23,146.702 1484.5,143.5C 1489.44,136.265 1496.27,131.598 1505,129.5C 1505.33,129.833 1505.67,130.167 1506,130.5C 1507.07,129.809 1508.23,129.309 1509.5,129C 1519.83,128.5 1530.16,128.334 1540.5,128.5C 1540.5,123.329 1539,118.663 1536,114.5C 1535.33,113.748 1534.5,113.414 1533.5,113.5C 1530.44,111.472 1526.94,110.472 1523,110.5C 1515.93,111.244 1509.27,113.244 1503,116.5C 1499.88,114.36 1496.71,112.36 1493.5,110.5C 1492.44,108.043 1490.61,106.377 1488,105.5C 1487.33,104.167 1487.33,102.833 1488,101.5C 1495.08,95.0446 1503.25,90.878 1512.5,89C 1525.52,87.029 1537.86,88.8623 1549.5,94.5 Z M 1539.5,148.5 C 1540.65,152.646 1540.81,156.98 1540,161.5C 1539.65,163.848 1538.49,165.681 1536.5,167C 1528.24,168.572 1519.91,168.905 1511.5,168C 1505.76,164.867 1503.93,160.033 1506,153.5C 1506.37,152.584 1506.87,151.75 1507.5,151C 1518.27,149.904 1528.94,149.071 1539.5,148.5 Z"/></g>
<g><path style="opacity:0.944" fill="#375516" d="M 1644.5,187.5 C 1644.83,166.156 1644.5,144.823 1643.5,123.5C 1642.83,122.051 1642.16,120.718 1641.5,119.5C 1638.89,113.886 1634.39,111.553 1628,112.5C 1619.88,112.138 1614.71,115.805 1612.5,123.5C 1611.5,144.823 1611.17,166.156 1611.5,187.5C 1603.5,187.5 1595.5,187.5 1587.5,187.5C 1587.5,155.167 1587.5,122.833 1587.5,90.5C 1595.5,90.5 1603.5,90.5 1611.5,90.5C 1611.33,93.8499 1611.5,97.1832 1612,100.5C 1617.88,92.3141 1625.88,88.3141 1636,88.5C 1650.69,88.8412 1660.69,95.8412 1666,109.5C 1666.93,114.855 1667.93,120.189 1669,125.5C 1669.5,146.164 1669.67,166.831 1669.5,187.5C 1661.17,187.5 1652.83,187.5 1644.5,187.5 Z"/></g>
<g><path style="opacity:0.933" fill="#365416" d="M 2147.5,100.5 C 2147.65,101.552 2147.48,102.552 2147,103.5C 2143.23,107.751 2139.73,112.085 2136.5,116.5C 2135.49,117.828 2134.16,118.828 2132.5,119.5C 2124.23,114.185 2115.23,111.185 2105.5,110.5C 2100.7,111.435 2096.03,112.768 2091.5,114.5C 2088.04,119.815 2089.37,123.315 2095.5,125C 2105.73,126.826 2116.06,128.16 2126.5,129C 2127.54,130.617 2128.7,130.784 2130,129.5C 2133.38,130.894 2136.55,132.561 2139.5,134.5C 2139.5,136.5 2140.5,137.5 2142.5,137.5C 2150.58,150.632 2150.42,163.632 2142,176.5C 2135.88,183.193 2128.38,187.36 2119.5,189C 2098.39,191.834 2079.22,187.334 2062,175.5C 2061.81,174.181 2061.97,172.847 2062.5,171.5C 2067.45,167.333 2071.45,162.333 2074.5,156.5C 2078.37,157.768 2082.04,159.602 2085.5,162C 2090.88,164.202 2096.38,166.035 2102,167.5C 2105.33,166.167 2108.67,166.167 2112,167.5C 2114.27,166.044 2116.77,165.21 2119.5,165C 2124.22,162.565 2125.72,158.731 2124,153.5C 2122.75,152.789 2121.58,151.956 2120.5,151C 2109.51,150.006 2098.67,148.506 2088,146.5C 2069.57,141.337 2062.9,129.337 2068,110.5C 2070.39,102.768 2075.06,96.7676 2082,92.5C 2082.33,92.8333 2082.67,93.1667 2083,93.5C 2086.3,91.5087 2089.8,90.0087 2093.5,89C 2101.83,88.3333 2110.17,88.3333 2118.5,89C 2122.96,90.0797 2127.3,91.5797 2131.5,93.5C 2132.09,93.2907 2132.59,92.9574 2133,92.5C 2137.94,94.3361 2142.78,97.0028 2147.5,100.5 Z"/></g>
<g><path style="opacity:0.004" fill="#000000" d="M 2207.5,88.5 C 2208.83,89.1667 2208.83,89.1667 2207.5,88.5 Z"/></g>
<g><path style="opacity:0.933" fill="#375516" d="M 2234.5,183.5 C 2233.6,180.931 2231.94,178.931 2229.5,177.5C 2227.82,174.705 2226.65,171.705 2226,168.5C 2221.49,145.739 2230.32,132.573 2252.5,129C 2262.83,128.5 2273.16,128.334 2283.5,128.5C 2283.88,120.623 2280.55,114.956 2273.5,111.5C 2268.5,110.167 2263.5,110.167 2258.5,111.5C 2254.01,112.504 2249.85,114.171 2246,116.5C 2245.17,116.333 2244.33,116.167 2243.5,116C 2239.98,112.093 2235.98,108.927 2231.5,106.5C 2231.28,105.265 2230.61,104.265 2229.5,103.5C 2230.61,102.735 2231.28,101.735 2231.5,100.5C 2234.87,96.7109 2238.7,94.0443 2243,92.5C 2243.33,92.8333 2243.67,93.1667 2244,93.5C 2250.81,89.7779 2258.14,88.1113 2266,88.5C 2290.39,87.9099 2303.73,99.5765 2306,123.5C 2306.5,144.831 2306.67,166.164 2306.5,187.5C 2298.83,187.5 2291.17,187.5 2283.5,187.5C 2283.66,185.473 2283.5,183.473 2283,181.5C 2279.27,185.445 2274.77,187.945 2269.5,189C 2257.17,190.659 2245.5,188.826 2234.5,183.5 Z M 2281.5,148.5 C 2282.12,148.611 2282.62,148.944 2283,149.5C 2283.67,153.833 2283.67,158.167 2283,162.5C 2281.34,164.917 2279.17,166.75 2276.5,168C 2269.17,168.667 2261.83,168.667 2254.5,168C 2249.96,165.97 2247.63,162.804 2247.5,158.5C 2248.53,155.217 2250.19,152.384 2252.5,150C 2262.34,149.83 2272.01,149.33 2281.5,148.5 Z"/></g>
<g><path style="opacity:0.937" fill="#355316" d="M 2429.5,116.5 C 2428.64,114.386 2426.97,113.22 2424.5,113C 2419.08,112.161 2413.75,112.494 2408.5,114C 2405.86,115.961 2404.03,118.461 2403,121.5C 2402.5,143.497 2402.33,165.497 2402.5,187.5C 2394.17,187.5 2385.83,187.5 2377.5,187.5C 2377.5,155.167 2377.5,122.833 2377.5,90.5C 2385.83,90.5 2394.17,90.5 2402.5,90.5C 2402.33,93.8499 2402.5,97.1832 2403,100.5C 2403.97,98.6951 2405.14,97.0284 2406.5,95.5C 2414.59,88.8089 2423.92,86.6422 2434.5,89C 2450.24,94.6232 2458.4,105.457 2459,121.5C 2459.67,143.167 2459.67,164.833 2459,186.5C 2450.59,187.483 2442.09,187.817 2433.5,187.5C 2433.67,165.164 2433.5,142.831 2433,120.5C 2432.94,118.09 2431.78,116.756 2429.5,116.5 Z"/></g>
<g><path style="opacity:0.933" fill="#375416" d="M 2537.5,187.5 C 2537.66,185.473 2537.5,183.473 2537,181.5C 2535.82,183.176 2534.32,184.509 2532.5,185.5C 2517.89,191.294 2503.56,190.628 2489.5,183.5C 2482.48,176.965 2479.14,168.799 2479.5,159C 2478.69,147.405 2483.19,138.572 2493,132.5C 2493.33,132.833 2493.67,133.167 2494,133.5C 2498.02,130.944 2502.18,129.444 2506.5,129C 2516.83,128.5 2527.16,128.334 2537.5,128.5C 2537.8,120.587 2534.46,114.921 2527.5,111.5C 2518.51,109.641 2510.17,111.141 2502.5,116C 2500.87,116.494 2499.2,116.66 2497.5,116.5C 2497.5,114.5 2496.5,113.5 2494.5,113.5C 2491.79,110.791 2488.79,108.458 2485.5,106.5C 2484.17,104.5 2484.17,102.5 2485.5,100.5C 2488.09,99.7457 2489.92,98.079 2491,95.5C 2491.33,95.8333 2491.67,96.1667 2492,96.5C 2504.04,88.8945 2517.21,86.3945 2531.5,89C 2545.5,91.7479 2554.66,99.9145 2559,113.5C 2559.5,138.164 2559.67,162.831 2559.5,187.5C 2552.17,187.5 2544.83,187.5 2537.5,187.5 Z M 2536.5,148.5 C 2537.81,153.348 2537.81,158.348 2536.5,163.5C 2534.68,165.243 2532.68,166.743 2530.5,168C 2523.17,168.667 2515.83,168.667 2508.5,168C 2500.97,163.807 2499.63,158.141 2504.5,151C 2515.27,149.904 2525.94,149.071 2536.5,148.5 Z"/></g>
<g><path style="opacity:0.942" fill="#375516" d="M 3214.5,181.5 C 3202.73,189.18 3189.73,191.68 3175.5,189C 3158.36,184.203 3148.53,173.037 3146,155.5C 3145.33,144.167 3145.33,132.833 3146,121.5C 3148.52,103.639 3158.69,92.8061 3176.5,89C 3212.41,85.7378 3229.74,102.238 3228.5,138.5C 3230.72,155.346 3226.06,169.68 3214.5,181.5 Z M 3198.5,116.5 C 3201.61,119.001 3203.28,122.334 3203.5,126.5C 3205.13,137.039 3204.63,147.373 3202,157.5C 3200.09,161.039 3197.26,163.539 3193.5,165C 3183.15,168.008 3175.65,164.841 3171,155.5C 3170.09,143.442 3170.42,131.442 3172,119.5C 3177.67,112.859 3184.84,110.693 3193.5,113C 3195.35,114.03 3197.01,115.196 3198.5,116.5 Z"/></g>
<g><path style="opacity:0.004" fill="#000000" d="M 3250.5,88.5 C 3251.83,89.1667 3251.83,89.1667 3250.5,88.5 Z"/></g>
<g><path style="opacity:0.929" fill="#365416" d="M 3319.5,94.5 C 3319.72,95.7348 3320.39,96.7348 3321.5,97.5C 3319.85,98.6477 3318.35,99.981 3317,101.5C 3314,106.654 3310.83,111.654 3307.5,116.5C 3304.54,116.045 3301.87,114.879 3299.5,113C 3294.08,112.161 3288.75,112.494 3283.5,114C 3280.08,116.679 3278.08,120.179 3277.5,124.5C 3276.5,145.489 3276.17,166.489 3276.5,187.5C 3268.17,187.5 3259.83,187.5 3251.5,187.5C 3251.5,155.167 3251.5,122.833 3251.5,90.5C 3259.83,90.5 3268.17,90.5 3276.5,90.5C 3276.33,93.8499 3276.5,97.1832 3277,100.5C 3280.8,94.8489 3285.96,91.0156 3292.5,89C 3297.5,88.3333 3302.5,88.3333 3307.5,89C 3311.57,90.7419 3315.57,92.5752 3319.5,94.5 Z"/></g>
<g><path style="opacity:0.934" fill="#375416" d="M 3563.5,94.5 C 3563.5,96.5 3564.5,97.5 3566.5,97.5C 3571.52,104.037 3574.52,111.537 3575.5,120C 3576.44,142.487 3576.77,164.987 3576.5,187.5C 3568.17,187.5 3559.83,187.5 3551.5,187.5C 3551.67,166.497 3551.5,145.497 3551,124.5C 3549.15,116.145 3543.98,112.145 3535.5,112.5C 3527.18,111.986 3522.18,115.82 3520.5,124C 3519.54,145.149 3519.21,166.315 3519.5,187.5C 3511.5,187.5 3503.5,187.5 3495.5,187.5C 3495.93,165.461 3495.43,143.461 3494,121.5C 3492.39,116.892 3489.23,114.059 3484.5,113C 3480.5,112.333 3476.5,112.333 3472.5,113C 3470.94,113.318 3469.77,114.151 3469,115.5C 3467.89,114.288 3467.39,114.621 3467.5,116.5C 3466.62,116.369 3465.96,116.702 3465.5,117.5C 3464.96,119.661 3464.13,121.661 3463,123.5C 3462.5,144.831 3462.33,166.164 3462.5,187.5C 3454.17,187.5 3445.83,187.5 3437.5,187.5C 3437.5,155.167 3437.5,122.833 3437.5,90.5C 3445.83,90.5 3454.17,90.5 3462.5,90.5C 3462.33,93.8499 3462.5,97.1832 3463,100.5C 3464.77,98.5805 3466.27,96.5805 3467.5,94.5C 3486.32,83.6749 3502.16,87.0082 3515,104.5C 3523.67,91.5975 3535.84,86.4308 3551.5,89C 3555.57,90.7419 3559.57,92.5752 3563.5,94.5 Z"/></g>
<g><path style="opacity:1" fill="#354b04" d="M 103.5,55.5 C 103.5,66.1667 103.5,76.8333 103.5,87.5C 104.146,99.8799 103.479,111.88 101.5,123.5C 102.157,100.735 102.823,78.0688 103.5,55.5 Z"/></g>
<g><path style="opacity:0.935" fill="#375516" d="M 693.5,187.5 C 687.167,187.5 680.833,187.5 674.5,187.5C 668.288,169.407 661.788,151.407 655,133.5C 653.79,130.497 652.29,127.83 650.5,125.5C 650.489,123.453 650.156,121.453 649.5,119.5C 645.676,109.849 642.009,100.182 638.5,90.5C 646.833,90.5 655.167,90.5 663.5,90.5C 670.78,110.59 677.613,130.923 684,151.5C 690.66,131.183 697.16,110.85 703.5,90.5C 712.167,90.5 720.833,90.5 729.5,90.5C 717.645,122.944 705.645,155.277 693.5,187.5 Z"/></g>
<g><path style="opacity:0.004" fill="#000000" d="M 801.5,90.5 C 802.833,91.1667 802.833,91.1667 801.5,90.5 Z"/></g>
<g><path style="opacity:0.004" fill="#000000" d="M 1234.5,90.5 C 1235.83,91.1667 1235.83,91.1667 1234.5,90.5 Z"/></g>
<g><path style="opacity:0.926" fill="#375417" d="M 1991.5,159.5 C 1991.5,161.5 1992.5,162.5 1994.5,162.5C 1994.88,163.931 1995.88,164.764 1997.5,165C 2002.17,165.667 2006.83,165.667 2011.5,165C 2013.96,163.542 2016.13,161.709 2018,159.5C 2019.47,136.566 2019.97,113.566 2019.5,90.5C 2027.83,90.5 2036.17,90.5 2044.5,90.5C 2044.5,122.833 2044.5,155.167 2044.5,187.5C 2036.17,187.5 2027.83,187.5 2019.5,187.5C 2019.66,184.813 2019.5,182.146 2019,179.5C 2010.95,189.038 2000.78,192.205 1988.5,189C 1974.54,184.542 1966.54,175.042 1964.5,160.5C 1963.5,137.176 1963.17,113.843 1963.5,90.5C 1971.83,90.5 1980.17,90.5 1988.5,90.5C 1988.33,112.503 1988.5,134.503 1989,156.5C 1989.85,157.571 1990.69,158.571 1991.5,159.5 Z"/></g>
<g><path style="opacity:0.916" fill="#365517" d="M 2686.5,90.5 C 2694.83,90.5 2703.17,90.5 2711.5,90.5C 2711.5,122.833 2711.5,155.167 2711.5,187.5C 2703.17,187.5 2694.83,187.5 2686.5,187.5C 2686.5,155.167 2686.5,122.833 2686.5,90.5 Z"/></g>
<g><path style="opacity:0.932" fill="#365416" d="M 2930.5,134.5 C 2931.93,138.374 2933.09,142.374 2934,146.5C 2934.67,147.833 2935.33,147.833 2936,146.5C 2942.48,127.9 2948.65,109.233 2954.5,90.5C 2962.5,90.5 2970.5,90.5 2978.5,90.5C 2966.94,126.18 2954.27,161.68 2940.5,197C 2941.02,197.561 2941.36,198.228 2941.5,199C 2939.5,203.984 2937.5,208.984 2935.5,214C 2934.1,216.734 2932.43,219.234 2930.5,221.5C 2928.07,223.614 2925.24,225.281 2922,226.5C 2915.83,227.417 2909.66,227.917 2903.5,228C 2902.52,220.253 2902.18,212.42 2902.5,204.5C 2905.82,204.219 2908.98,204.219 2912,204.5C 2913.44,203.13 2915.11,202.13 2917,201.5C 2919.85,195.589 2922.02,189.423 2923.5,183C 2912.75,152.589 2901.41,122.089 2889.5,91.5C 2897.81,90.5021 2906.14,90.1688 2914.5,90.5C 2918.73,105.611 2924.06,120.277 2930.5,134.5 Z"/></g>
<g><path style="opacity:0.947" fill="#365516" d="M 3337.5,174.5 C 3335.71,170.357 3334.38,166.024 3333.5,161.5C 3332.5,137.843 3332.17,114.176 3332.5,90.5C 3340.5,90.5 3348.5,90.5 3356.5,90.5C 3356.33,110.503 3356.5,130.503 3357,150.5C 3359.47,164.823 3367.97,169.323 3382.5,164C 3386.04,161.745 3388.21,158.579 3389,154.5C 3389.5,133.169 3389.67,111.836 3389.5,90.5C 3397.83,90.5 3406.17,90.5 3414.5,90.5C 3414.5,122.833 3414.5,155.167 3414.5,187.5C 3406.17,187.5 3397.83,187.5 3389.5,187.5C 3389.67,184.15 3389.5,180.817 3389,177.5C 3381.26,188.393 3370.76,192.227 3357.5,189C 3353.69,187.727 3350.02,186.06 3346.5,184C 3343.27,180.938 3340.27,177.771 3337.5,174.5 Z"/></g>
<g><path style="opacity:1" fill="#375416" d="M 625.5,187.5 C 617.167,187.5 608.833,187.5 600.5,187.5C 600.5,155.167 600.5,122.833 600.5,90.5C 608.833,90.5 617.167,90.5 625.5,90.5C 625.5,122.833 625.5,155.167 625.5,187.5 Z"/></g>
<g><path style="opacity:1" fill="#375716" d="M 2354.5,187.5 C 2346.17,187.5 2337.83,187.5 2329.5,187.5C 2329.5,155.167 2329.5,122.833 2329.5,90.5C 2337.83,90.5 2346.17,90.5 2354.5,90.5C 2354.5,122.833 2354.5,155.167 2354.5,187.5 Z"/></g>
<g><path style="opacity:1" fill="#375517" d="M 2813.5,187.5 C 2805.83,187.5 2798.17,187.5 2790.5,187.5C 2790.5,155.167 2790.5,122.833 2790.5,90.5C 2798.17,90.5 2805.83,90.5 2813.5,90.5C 2813.5,122.833 2813.5,155.167 2813.5,187.5 Z"/></g>
<g><path style="opacity:0.004" fill="#000000" d="M 501.5,93.5 C 502.833,94.1667 502.833,94.1667 501.5,93.5 Z"/></g>
<g><path style="opacity:0.004" fill="#000000" d="M 1239.5,93.5 C 1240.83,94.1667 1240.83,94.1667 1239.5,93.5 Z"/></g>
<g><path style="opacity:0.004" fill="#000000" d="M 1549.5,93.5 C 1550.83,94.1667 1550.83,94.1667 1549.5,93.5 Z"/></g>
<g><path style="opacity:0.004" fill="#000000" d="M 2447.5,93.5 C 2448.83,94.1667 2448.83,94.1667 2447.5,93.5 Z"/></g>
<g><path style="opacity:0.004" fill="#000000" d="M 2546.5,93.5 C 2547.83,94.1667 2547.83,94.1667 2546.5,93.5 Z"/></g>
<g><path style="opacity:0.004" fill="#000000" d="M 3319.5,93.5 C 3320.83,94.1667 3320.83,94.1667 3319.5,93.5 Z"/></g>
<g><path style="opacity:0.004" fill="#000000" d="M 3467.5,94.5 C 3466.83,93.1667 3466.83,93.1667 3467.5,94.5 Z"/></g>
<g><path style="opacity:0.004" fill="#000000" d="M 3507.5,93.5 C 3508.83,94.1667 3508.83,94.1667 3507.5,93.5 Z"/></g>
<g><path style="opacity:0.004" fill="#000000" d="M 3563.5,93.5 C 3564.83,94.1667 3564.83,94.1667 3563.5,93.5 Z"/></g>
<g><path style="opacity:0.004" fill="#000000" d="M 442.5,96.5 C 443.833,97.1667 443.833,97.1667 442.5,96.5 Z"/></g>
<g><path style="opacity:0.004" fill="#000000" d="M 1135.5,96.5 C 1136.83,97.1667 1136.83,97.1667 1135.5,96.5 Z"/></g>
<g><path style="opacity:0.004" fill="#000000" d="M 2073.5,96.5 C 2074.83,97.1667 2074.83,97.1667 2073.5,96.5 Z"/></g>
<g><path style="opacity:0.004" fill="#000000" d="M 2296.5,96.5 C 2297.83,97.1667 2297.83,97.1667 2296.5,96.5 Z"/></g>
<g><path style="opacity:0.004" fill="#000000" d="M 2487.5,96.5 C 2488.83,97.1667 2488.83,97.1667 2487.5,96.5 Z"/></g>
<g><path style="opacity:0.004" fill="#000000" d="M 2655.5,96.5 C 2656.83,97.1667 2656.83,97.1667 2655.5,96.5 Z"/></g>
<g><path style="opacity:0.004" fill="#000000" d="M 3510.5,96.5 C 3511.83,97.1667 3511.83,97.1667 3510.5,96.5 Z"/></g>
<g><path style="opacity:0.004" fill="#000000" d="M 3566.5,96.5 C 3567.83,97.1667 3567.83,97.1667 3566.5,96.5 Z"/></g>
<g><path style="opacity:1" fill="#139d0d" d="M 184.5,133.5 C 173.167,133.5 161.833,133.5 150.5,133.5C 150.122,127.538 151.122,121.871 153.5,116.5C 153.5,116.167 153.5,115.833 153.5,115.5C 158.829,106.695 166.495,100.528 176.5,97C 188.829,96.5001 201.162,96.3335 213.5,96.5C 213.764,104.968 211.431,112.635 206.5,119.5C 203.5,122.667 200.5,125.833 197.5,129C 193.552,131.559 189.219,133.059 184.5,133.5 Z"/></g>
<g><path style="opacity:0.004" fill="#000000" d="M 362.5,99.5 C 363.833,100.167 363.833,100.167 362.5,99.5 Z"/></g>
<g><path style="opacity:0.004" fill="#000000" d="M 439.5,99.5 C 440.833,100.167 440.833,100.167 439.5,99.5 Z"/></g>
<g><path style="opacity:0.004" fill="#000000" d="M 751.5,100.5 C 750.833,99.1667 750.833,99.1667 751.5,100.5 Z"/></g>
<g><path style="opacity:0.004" fill="#000000" d="M 1070.5,100.5 C 1069.83,99.1667 1069.83,99.1667 1070.5,100.5 Z"/></g>
<g><path style="opacity:0.004" fill="#000000" d="M 1415.5,99.5 C 1416.83,100.167 1416.83,100.167 1415.5,99.5 Z"/></g>
<g><path style="opacity:0.004" fill="#000000" d="M 1555.5,99.5 C 1556.83,100.167 1556.83,100.167 1555.5,99.5 Z"/></g>
<g><path style="opacity:0.004" fill="#000000" d="M 1697.5,100.5 C 1696.83,99.1667 1696.83,99.1667 1697.5,100.5 Z"/></g>
<g><path style="opacity:0.004" fill="#000000" d="M 2147.5,99.5 C 2148.83,100.167 2148.83,100.167 2147.5,99.5 Z"/></g>
<g><path style="opacity:0.004" fill="#000000" d="M 2231.5,100.5 C 2230.83,99.1667 2230.83,99.1667 2231.5,100.5 Z"/></g>
<g><path style="opacity:0.004" fill="#000000" d="M 2485.5,100.5 C 2484.83,99.1667 2484.83,99.1667 2485.5,100.5 Z"/></g>
<g><path style="opacity:0.004" fill="#000000" d="M 333.5,100.5 C 334.833,101.167 334.833,101.167 333.5,100.5 Z"/></g>
<g><path style="opacity:0.004" fill="#000000" d="M 439.5,100.5 C 438.833,101.167 438.833,101.167 439.5,100.5 Z"/></g>
<g><path style="opacity:0.004" fill="#000000" d="M 3220.5,100.5 C 3221.83,101.167 3221.83,101.167 3220.5,100.5 Z"/></g>
<g><path style="opacity:0.004" fill="#000000" d="M 3319.5,100.5 C 3320.83,101.167 3320.83,101.167 3319.5,100.5 Z"/></g>
<g><path style="opacity:0.004" fill="#000000" d="M 365.5,105.5 C 366.833,106.167 366.833,106.167 365.5,105.5 Z"/></g>
<g><path style="opacity:0.004" fill="#000000" d="M 3693.5,106.5 C 3692.83,105.167 3692.83,105.167 3693.5,106.5 Z"/></g>
<g><path style="opacity:0.004" fill="#000000" d="M 724.5,106.5 C 725.833,107.167 725.833,107.167 724.5,106.5 Z"/></g>
<g><path style="opacity:0.004" fill="#000000" d="M 1069.5,106.5 C 1070.83,107.167 1070.83,107.167 1069.5,106.5 Z"/></g>
<g><path style="opacity:0.004" fill="#000000" d="M 1413.5,106.5 C 1414.83,107.167 1414.83,107.167 1413.5,106.5 Z"/></g>
<g><path style="opacity:0.004" fill="#000000" d="M 2145.5,106.5 C 2146.83,107.167 2146.83,107.167 2145.5,106.5 Z"/></g>
<g><path style="opacity:0.004" fill="#000000" d="M 2231.5,106.5 C 2230.83,107.167 2230.83,107.167 2231.5,106.5 Z"/></g>
<g><path style="opacity:0.004" fill="#000000" d="M 2485.5,106.5 C 2484.83,107.167 2484.83,107.167 2485.5,106.5 Z"/></g>
<g><path style="opacity:0.004" fill="#000000" d="M 3315.5,106.5 C 3316.83,107.167 3316.83,107.167 3315.5,106.5 Z"/></g>
<g><path style="opacity:0.004" fill="#000000" d="M 338.5,107.5 C 337.833,108.167 337.833,108.167 338.5,107.5 Z"/></g>
<g><path style="opacity:0.004" fill="#000000" d="M 3894.5,109.5 C 3893.83,108.167 3893.83,108.167 3894.5,109.5 Z"/></g>
<g><path style="opacity:0.004" fill="#000000" d="M 442.5,109.5 C 443.833,110.167 443.833,110.167 442.5,109.5 Z"/></g>
<g><path style="opacity:0.004" fill="#000000" d="M 2487.5,109.5 C 2488.83,110.167 2488.83,110.167 2487.5,109.5 Z"/></g>
<g><path style="opacity:0.004" fill="#000000" d="M 1493.5,110.5 C 1492.83,111.167 1492.83,111.167 1493.5,110.5 Z"/></g>
<g><path style="opacity:0.004" fill="#000000" d="M 4020.5,110.5 C 4021.83,111.167 4021.83,111.167 4020.5,110.5 Z"/></g>
<g><path style="opacity:0.004" fill="#000000" d="M 449.5,113.5 C 448.833,114.167 448.833,114.167 449.5,113.5 Z"/></g>
<g><path style="opacity:0.004" fill="#000000" d="M 1079.5,113.5 C 1078.83,114.167 1078.83,114.167 1079.5,113.5 Z"/></g>
<g><path style="opacity:0.004" fill="#000000" d="M 1533.5,113.5 C 1532.83,114.167 1532.83,114.167 1533.5,113.5 Z"/></g>
<g><path style="opacity:0.004" fill="#000000" d="M 2494.5,113.5 C 2493.83,114.167 2493.83,114.167 2494.5,113.5 Z"/></g>
<g><path style="opacity:1" fill="#3a4403" d="M 132.5,114.5 C 139.313,115.491 146.313,115.825 153.5,115.5C 153.5,115.833 153.5,116.167 153.5,116.5C 146.137,116.831 138.803,116.497 131.5,115.5C 131.624,114.893 131.957,114.56 132.5,114.5 Z"/></g>
<g><path style="opacity:0.004" fill="#000000" d="M 371.5,115.5 C 372.833,116.167 372.833,116.167 371.5,115.5 Z"/></g>
<g><path style="opacity:0.004" fill="#000000" d="M 1360.5,115.5 C 1361.83,116.167 1361.83,116.167 1360.5,115.5 Z"/></g>
<g><path style="opacity:0.004" fill="#000000" d="M 452.5,116.5 C 451.833,117.167 451.833,117.167 452.5,116.5 Z"/></g>
<g><path style="opacity:0.004" fill="#000000" d="M 1221.5,116.5 C 1220.83,117.167 1220.83,117.167 1221.5,116.5 Z"/></g>
<g><path style="opacity:0.004" fill="#000000" d="M 1404.5,116.5 C 1405.83,117.167 1405.83,117.167 1404.5,116.5 Z"/></g>
<g><path style="opacity:0.004" fill="#000000" d="M 1499.5,116.5 C 1500.83,117.167 1500.83,117.167 1499.5,116.5 Z"/></g>
<g><path style="opacity:0.004" fill="#000000" d="M 1505.5,116.5 C 1506.83,117.167 1506.83,117.167 1505.5,116.5 Z"/></g>
<g><path style="opacity:0.004" fill="#000000" d="M 2136.5,116.5 C 2137.83,117.167 2137.83,117.167 2136.5,116.5 Z"/></g>
<g><path style="opacity:0.004" fill="#000000" d="M 2429.5,116.5 C 2428.83,117.167 2428.83,117.167 2429.5,116.5 Z"/></g>
<g><path style="opacity:0.004" fill="#000000" d="M 2497.5,116.5 C 2496.83,117.167 2496.83,117.167 2497.5,116.5 Z"/></g>
<g><path style="opacity:0.004" fill="#000000" d="M 3307.5,116.5 C 3308.83,117.167 3308.83,117.167 3307.5,116.5 Z"/></g>
<g><path style="opacity:0.004" fill="#000000" d="M 3467.5,116.5 C 3468.83,117.167 3468.83,117.167 3467.5,116.5 Z"/></g>
<g><path style="opacity:0.004" fill="#000000" d="M 3488.5,116.5 C 3489.83,117.167 3489.83,117.167 3488.5,116.5 Z"/></g>
<g><path style="opacity:0.004" fill="#000000" d="M 343.5,118.5 C 344.833,119.167 344.833,119.167 343.5,118.5 Z"/></g>
<g><path style="opacity:0.004" fill="#000000" d="M 372.5,118.5 C 373.833,119.167 373.833,119.167 372.5,118.5 Z"/></g>
<g><path style="opacity:0.004" fill="#000000" d="M 1641.5,119.5 C 1640.83,120.167 1640.83,120.167 1641.5,119.5 Z"/></g>
<g><path style="opacity:0.004" fill="#000000" d="M 1360.5,121.5 C 1361.83,122.167 1361.83,122.167 1360.5,121.5 Z"/></g>
<g><path style="opacity:0.004" fill="#000000" d="M 3918.5,122.5 C 3919.83,123.167 3919.83,123.167 3918.5,122.5 Z"/></g>
<g><path style="opacity:0.004" fill="#000000" d="M 650.5,125.5 C 649.833,126.167 649.833,126.167 650.5,125.5 Z"/></g>
<g><path style="opacity:0.004" fill="#000000" d="M 983.5,125.5 C 984.833,126.167 984.833,126.167 983.5,125.5 Z"/></g>
<g><path style="opacity:0.004" fill="#000000" d="M 4026.5,127.5 C 4027.83,128.167 4027.83,128.167 4026.5,127.5 Z"/></g>
<g><path style="opacity:0.004" fill="#000000" d="M 350.5,128.5 C 349.833,129.167 349.833,129.167 350.5,128.5 Z"/></g>
<g><path style="opacity:0.004" fill="#000000" d="M 2901.5,128.5 C 2902.83,129.167 2902.83,129.167 2901.5,128.5 Z"/></g>
<g><path style="opacity:0.004" fill="#000000" d="M 3977.5,128.5 C 3978.83,129.167 3978.83,129.167 3977.5,128.5 Z"/></g>
<g><path style="opacity:0.004" fill="#000000" d="M 3708.5,131.5 C 3709.83,132.167 3709.83,132.167 3708.5,131.5 Z"/></g>
<g><path style="opacity:1" fill="#183104" d="M 150.5,133.5 C 161.833,133.5 173.167,133.5 184.5,133.5C 161.264,134.176 137.931,134.843 114.5,135.5C 126.12,133.521 138.12,132.854 150.5,133.5 Z"/></g>
<g><path style="opacity:0.004" fill="#000000" d="M 1407.5,133.5 C 1408.83,134.167 1408.83,134.167 1407.5,133.5 Z"/></g>
<g><path style="opacity:0.004" fill="#000000" d="M 2139.5,133.5 C 2140.83,134.167 2140.83,134.167 2139.5,133.5 Z"/></g>
<g><path style="opacity:0.004" fill="#000000" d="M 2930.5,133.5 C 2931.83,134.167 2931.83,134.167 2930.5,133.5 Z"/></g>
<g><path style="opacity:1" fill="#4b6a07" d="M 58.5,95.5 C 57.5794,108.137 57.246,120.803 57.5,133.5C 57.6665,145.505 57.4999,157.505 57,169.5C 56.6174,170.056 56.1174,170.389 55.5,170.5C 56.3142,146.209 56.8142,121.876 57,97.5C 57.2784,96.5842 57.7784,95.9175 58.5,95.5 Z"/></g>
<g><path style="opacity:0.004" fill="#000000" d="M 352.5,134.5 C 353.833,135.167 353.833,135.167 352.5,134.5 Z"/></g>
<g><path style="opacity:0.004" fill="#000000" d="M 1489.5,134.5 C 1490.83,135.167 1490.83,135.167 1489.5,134.5 Z"/></g>
<g><path style="opacity:0.004" fill="#000000" d="M 3909.5,134.5 C 3910.83,135.167 3910.83,135.167 3909.5,134.5 Z"/></g>
<g><path style="opacity:0.004" fill="#000000" d="M 439.5,136.5 C 440.833,137.167 440.833,137.167 439.5,136.5 Z"/></g>
<g><path style="opacity:0.004" fill="#000000" d="M 1410.5,136.5 C 1411.83,137.167 1411.83,137.167 1410.5,136.5 Z"/></g>
<g><path style="opacity:0.004" fill="#000000" d="M 2142.5,136.5 C 2143.83,137.167 2143.83,137.167 2142.5,136.5 Z"/></g>
<g><path style="opacity:0.004" fill="#000000" d="M 2484.5,136.5 C 2485.83,137.167 2485.83,137.167 2484.5,136.5 Z"/></g>
<g><path style="opacity:0.004" fill="#000000" d="M 1486.5,137.5 C 1487.83,138.167 1487.83,138.167 1486.5,137.5 Z"/></g>
<g><path style="opacity:0.004" fill="#000000" d="M 3871.5,137.5 C 3872.83,138.167 3872.83,138.167 3871.5,137.5 Z"/></g>
<g><path style="opacity:0.004" fill="#000000" d="M 384.5,139.5 C 385.833,140.167 385.833,140.167 384.5,139.5 Z"/></g>
<g><path style="opacity:0.004" fill="#000000" d="M 3903.5,141.5 C 3904.83,142.167 3904.83,142.167 3903.5,141.5 Z"/></g>
<g><path style="opacity:1" fill="#073f05" d="M 135.5,143.5 C 145.987,142.506 156.654,142.172 167.5,142.5C 167.768,144.099 167.434,145.432 166.5,146.5C 166.5,145.5 166.5,144.5 166.5,143.5C 156.167,143.5 145.833,143.5 135.5,143.5 Z"/></g>
<g><path style="opacity:0.004" fill="#000000" d="M 1484.5,143.5 C 1483.83,142.167 1483.83,142.167 1484.5,143.5 Z"/></g>
<g><path style="opacity:0.004" fill="#000000" d="M 2076.5,143.5 C 2077.83,144.167 2077.83,144.167 2076.5,143.5 Z"/></g>
<g><path style="opacity:1" fill="#139d0d" d="M 135.5,143.5 C 145.833,143.5 156.167,143.5 166.5,143.5C 166.5,144.5 166.5,145.5 166.5,146.5C 164.231,166.769 152.898,178.102 132.5,180.5C 122.5,180.5 112.5,180.5 102.5,180.5C 102.965,174.709 103.965,169.042 105.5,163.5C 108.995,158.081 113.329,153.248 118.5,149C 123.752,145.86 129.419,144.027 135.5,143.5 Z"/></g>
<g><path style="opacity:0.004" fill="#000000" d="M 3661.5,146.5 C 3662.83,147.167 3662.83,147.167 3661.5,146.5 Z"/></g>
<g><path style="opacity:0.004" fill="#000000" d="M 3899.5,147.5 C 3900.83,148.167 3900.83,148.167 3899.5,147.5 Z"/></g>
<g><path style="opacity:0.004" fill="#000000" d="M 823.5,149.5 C 824.833,150.167 824.833,150.167 823.5,149.5 Z"/></g>
<g><path style="opacity:0.004" fill="#000000" d="M 3862.5,149.5 C 3863.83,150.167 3863.83,150.167 3862.5,149.5 Z"/></g>
<g><path style="opacity:0.004" fill="#000000" d="M 3693.5,150.5 C 3694.83,151.167 3694.83,151.167 3693.5,150.5 Z"/></g>
<g><path style="opacity:0.004" fill="#000000" d="M 3894.5,153.5 C 3895.83,154.167 3895.83,154.167 3894.5,153.5 Z"/></g>
<g><path style="opacity:0.004" fill="#000000" d="M 1342.5,156.5 C 1341.83,155.167 1341.83,155.167 1342.5,156.5 Z"/></g>
<g><path style="opacity:0.004" fill="#000000" d="M 2074.5,156.5 C 2073.83,155.167 2073.83,155.167 2074.5,156.5 Z"/></g>
<g><path style="opacity:0.004" fill="#000000" d="M 3859.5,156.5 C 3858.83,155.167 3858.83,155.167 3859.5,156.5 Z"/></g>
<g><path style="opacity:0.004" fill="#000000" d="M 3893.5,155.5 C 3894.83,156.167 3894.83,156.167 3893.5,155.5 Z"/></g>
<g><path style="opacity:0.004" fill="#000000" d="M 3689.5,156.5 C 3690.83,157.167 3690.83,157.167 3689.5,156.5 Z"/></g>
<g><path style="opacity:0.004" fill="#000000" d="M 807.5,158.5 C 808.833,159.167 808.833,159.167 807.5,158.5 Z"/></g>
<g><path style="opacity:0.004" fill="#000000" d="M 1351.5,158.5 C 1352.83,159.167 1352.83,159.167 1351.5,158.5 Z"/></g>
<g><path style="opacity:0.004" fill="#000000" d="M 1991.5,158.5 C 1992.83,159.167 1992.83,159.167 1991.5,158.5 Z"/></g>
<g><path style="opacity:0.004" fill="#000000" d="M 2083.5,158.5 C 2084.83,159.167 2084.83,159.167 2083.5,158.5 Z"/></g>
<g><path style="opacity:0.004" fill="#000000" d="M 3652.5,158.5 C 3653.83,159.167 3653.83,159.167 3652.5,158.5 Z"/></g>
<g><path style="opacity:0.004" fill="#000000" d="M 3687.5,158.5 C 3688.83,159.167 3688.83,159.167 3687.5,158.5 Z"/></g>
<g><path style="opacity:0.004" fill="#000000" d="M 4001.5,159.5 C 4000.83,158.167 4000.83,158.167 4001.5,159.5 Z"/></g>
<g><path style="opacity:0.004" fill="#000000" d="M 3890.5,159.5 C 3891.83,160.167 3891.83,160.167 3890.5,159.5 Z"/></g>
<g><path style="opacity:0.004" fill="#000000" d="M 810.5,161.5 C 811.833,162.167 811.833,162.167 810.5,161.5 Z"/></g>
<g><path style="opacity:0.004" fill="#000000" d="M 1994.5,161.5 C 1995.83,162.167 1995.83,162.167 1994.5,161.5 Z"/></g>
<g><path style="opacity:0.004" fill="#000000" d="M 3853.5,161.5 C 3854.83,162.167 3854.83,162.167 3853.5,161.5 Z"/></g>
<g><path style="opacity:0.004" fill="#000000" d="M 369.5,162.5 C 368.833,163.167 368.833,163.167 369.5,162.5 Z"/></g>
<g><path style="opacity:0.004" fill="#000000" d="M 579.5,164.5 C 580.833,165.167 580.833,165.167 579.5,164.5 Z"/></g>
<g><path style="opacity:0.004" fill="#000000" d="M 1316.5,164.5 C 1317.83,165.167 1317.83,165.167 1316.5,164.5 Z"/></g>
<g><path style="opacity:0.004" fill="#000000" d="M 1335.5,165.5 C 1334.83,164.167 1334.83,164.167 1335.5,165.5 Z"/></g>
<g><path style="opacity:0.004" fill="#000000" d="M 2207.5,164.5 C 2208.83,165.167 2208.83,165.167 2207.5,164.5 Z"/></g>
<g><path style="opacity:0.004" fill="#000000" d="M 2877.5,164.5 C 2878.83,165.167 2878.83,165.167 2877.5,164.5 Z"/></g>
<g><path style="opacity:0.004" fill="#000000" d="M 3649.5,165.5 C 3648.83,164.167 3648.83,164.167 3649.5,165.5 Z"/></g>
<g><path style="opacity:0.004" fill="#000000" d="M 1329.5,170.5 C 1330.83,171.167 1330.83,171.167 1329.5,170.5 Z"/></g>
<g><path style="opacity:0.004" fill="#000000" d="M 2062.5,171.5 C 2061.83,170.167 2061.83,170.167 2062.5,171.5 Z"/></g>
<g><path style="opacity:0.004" fill="#000000" d="M 3337.5,174.5 C 3336.83,175.167 3336.83,175.167 3337.5,174.5 Z"/></g>
<g><path style="opacity:0.004" fill="#000000" d="M 1696.5,177.5 C 1697.83,178.167 1697.83,178.167 1696.5,177.5 Z"/></g>
<g><path style="opacity:0.004" fill="#000000" d="M 3822.5,177.5 C 3823.83,178.167 3823.83,178.167 3822.5,177.5 Z"/></g>
<g><path style="opacity:0.004" fill="#000000" d="M 3955.5,177.5 C 3956.83,178.167 3956.83,178.167 3955.5,177.5 Z"/></g>
<g><path style="opacity:0.004" fill="#000000" d="M 752.5,178.5 C 751.833,179.167 751.833,179.167 752.5,178.5 Z"/></g>
<g><path style="opacity:1" fill="#193304" d="M 102.5,180.5 C 112.5,180.5 122.5,180.5 132.5,180.5C 110.961,181.188 89.2944,181.854 67.5,182.5C 67.6107,181.883 67.944,181.383 68.5,181C 79.8284,180.5 91.1618,180.333 102.5,180.5 Z"/></g>
<g><path style="opacity:0.004" fill="#000000" d="M 1069.5,180.5 C 1070.83,181.167 1070.83,181.167 1069.5,180.5 Z"/></g>
<g><path style="opacity:0.004" fill="#000000" d="M 1928.5,180.5 C 1929.83,181.167 1929.83,181.167 1928.5,180.5 Z"/></g>
<g><path style="opacity:0.004" fill="#000000" d="M 1971.5,180.5 C 1972.83,181.167 1972.83,181.167 1971.5,180.5 Z"/></g>
<g><path style="opacity:0.004" fill="#000000" d="M 2139.5,180.5 C 2140.83,181.167 2140.83,181.167 2139.5,180.5 Z"/></g>
<g><path style="opacity:0.004" fill="#000000" d="M 2231.5,181.5 C 2230.83,180.167 2230.83,180.167 2231.5,181.5 Z"/></g>
<g><path style="opacity:0.004" fill="#000000" d="M 2655.5,180.5 C 2656.83,181.167 2656.83,181.167 2655.5,180.5 Z"/></g>
<g><path style="opacity:0.004" fill="#000000" d="M 3340.5,180.5 C 3341.83,181.167 3341.83,181.167 3340.5,180.5 Z"/></g>
<g><path style="opacity:0.004" fill="#000000" d="M 3958.5,180.5 C 3959.83,181.167 3959.83,181.167 3958.5,180.5 Z"/></g>
<g><path style="opacity:0.004" fill="#000000" d="M 2231.5,181.5 C 2232.83,182.167 2232.83,182.167 2231.5,181.5 Z"/></g>
<g><path style="opacity:0.004" fill="#000000" d="M 2741.5,181.5 C 2740.83,182.167 2740.83,182.167 2741.5,181.5 Z"/></g>
<g><path style="opacity:0.004" fill="#000000" d="M 3214.5,181.5 C 3215.83,182.167 3215.83,182.167 3214.5,181.5 Z"/></g>
<g><path style="opacity:0.004" fill="#000000" d="M 547.5,183.5 C 548.833,184.167 548.833,184.167 547.5,183.5 Z"/></g>
<g><path style="opacity:0.004" fill="#000000" d="M 1072.5,183.5 C 1073.83,184.167 1073.83,184.167 1072.5,183.5 Z"/></g>
<g><path style="opacity:0.004" fill="#000000" d="M 1743.5,183.5 C 1744.83,184.167 1744.83,184.167 1743.5,183.5 Z"/></g>
<g><path style="opacity:0.004" fill="#000000" d="M 1974.5,183.5 C 1975.83,184.167 1975.83,184.167 1974.5,183.5 Z"/></g>
<g><path style="opacity:0.004" fill="#000000" d="M 2175.5,183.5 C 2176.83,184.167 2176.83,184.167 2175.5,183.5 Z"/></g>
<g><path style="opacity:0.004" fill="#000000" d="M 2234.5,183.5 C 2233.83,184.167 2233.83,184.167 2234.5,183.5 Z"/></g>
<g><path style="opacity:0.004" fill="#000000" d="M 3343.5,183.5 C 3344.83,184.167 3344.83,184.167 3343.5,183.5 Z"/></g>
<g><path style="opacity:0.004" fill="#000000" d="M 162.5,184.5 C 163.833,185.167 163.833,185.167 162.5,184.5 Z"/></g>
<g><path style="opacity:0.004" fill="#000000" d="M 1023.5,184.5 C 1022.83,185.167 1022.83,185.167 1023.5,184.5 Z"/></g>
<g><path style="opacity:0.004" fill="#000000" d="M 1286.5,184.5 C 1285.83,185.167 1285.83,185.167 1286.5,184.5 Z"/></g>
<g><path style="opacity:0.004" fill="#000000" d="M 1493.5,184.5 C 1492.83,185.167 1492.83,185.167 1493.5,184.5 Z"/></g>
<g><path style="opacity:0.004" fill="#000000" d="M 307.5,187.5 C 306.833,188.167 306.833,188.167 307.5,187.5 Z"/></g>
<g><path style="opacity:0.004" fill="#000000" d="M 331.5,187.5 C 332.833,188.167 332.833,188.167 331.5,187.5 Z"/></g>
<g><path style="opacity:0.004" fill="#000000" d="M 384.5,187.5 C 383.833,188.167 383.833,188.167 384.5,187.5 Z"/></g>
<g><path style="opacity:0.004" fill="#000000" d="M 411.5,187.5 C 412.833,188.167 412.833,188.167 411.5,187.5 Z"/></g>
<g><path style="opacity:0.004" fill="#000000" d="M 492.5,187.5 C 491.833,188.167 491.833,188.167 492.5,187.5 Z"/></g>
<g><path style="opacity:0.004" fill="#000000" d="M 514.5,187.5 C 515.833,188.167 515.833,188.167 514.5,187.5 Z"/></g>
<g><path style="opacity:0.004" fill="#000000" d="M 600.5,187.5 C 599.833,188.167 599.833,188.167 600.5,187.5 Z"/></g>
<g><path style="opacity:0.004" fill="#000000" d="M 625.5,187.5 C 626.833,188.167 626.833,188.167 625.5,187.5 Z"/></g>
<g><path style="opacity:0.004" fill="#000000" d="M 674.5,187.5 C 673.833,188.167 673.833,188.167 674.5,187.5 Z"/></g>
<g><path style="opacity:0.004" fill="#000000" d="M 693.5,187.5 C 694.833,188.167 694.833,188.167 693.5,187.5 Z"/></g>
<g><path style="opacity:0.004" fill="#000000" d="M 922.5,187.5 C 923.833,188.167 923.833,188.167 922.5,187.5 Z"/></g>
<g><path style="opacity:0.004" fill="#000000" d="M 1122.5,187.5 C 1121.83,188.167 1121.83,188.167 1122.5,187.5 Z"/></g>
<g><path style="opacity:0.004" fill="#000000" d="M 1169.5,187.5 C 1168.83,188.167 1168.83,188.167 1169.5,187.5 Z"/></g>
<g><path style="opacity:0.004" fill="#000000" d="M 1251.5,187.5 C 1252.83,188.167 1252.83,188.167 1251.5,187.5 Z"/></g>
<g><path style="opacity:0.004" fill="#000000" d="M 1540.5,187.5 C 1539.83,188.167 1539.83,188.167 1540.5,187.5 Z"/></g>
<g><path style="opacity:0.004" fill="#000000" d="M 1611.5,187.5 C 1612.83,188.167 1612.83,188.167 1611.5,187.5 Z"/></g>
<g><path style="opacity:0.004" fill="#000000" d="M 1644.5,187.5 C 1643.83,188.167 1643.83,188.167 1644.5,187.5 Z"/></g>
<g><path style="opacity:0.004" fill="#000000" d="M 1746.5,187.5 C 1745.83,188.167 1745.83,188.167 1746.5,187.5 Z"/></g>
<g><path style="opacity:0.004" fill="#000000" d="M 1771.5,187.5 C 1772.83,188.167 1772.83,188.167 1771.5,187.5 Z"/></g>
<g><path style="opacity:0.004" fill="#000000" d="M 2019.5,187.5 C 2018.83,188.167 2018.83,188.167 2019.5,187.5 Z"/></g>
<g><path style="opacity:0.004" fill="#000000" d="M 2354.5,187.5 C 2355.83,188.167 2355.83,188.167 2354.5,187.5 Z"/></g>
<g><path style="opacity:0.004" fill="#000000" d="M 2377.5,187.5 C 2376.83,188.167 2376.83,188.167 2377.5,187.5 Z"/></g>
<g><path style="opacity:0.004" fill="#000000" d="M 2459.5,187.5 C 2460.83,188.167 2460.83,188.167 2459.5,187.5 Z"/></g>
<g><path style="opacity:0.004" fill="#000000" d="M 2537.5,187.5 C 2536.83,188.167 2536.83,188.167 2537.5,187.5 Z"/></g>
<g><path style="opacity:0.004" fill="#000000" d="M 2584.5,187.5 C 2583.83,188.167 2583.83,188.167 2584.5,187.5 Z"/></g>
<g><path style="opacity:0.004" fill="#000000" d="M 2790.5,187.5 C 2789.83,188.167 2789.83,188.167 2790.5,187.5 Z"/></g>
<g><path style="opacity:0.004" fill="#000000" d="M 2813.5,187.5 C 2814.83,188.167 2814.83,188.167 2813.5,187.5 Z"/></g>
<g><path style="opacity:0.004" fill="#000000" d="M 3068.5,187.5 C 3069.83,188.167 3069.83,188.167 3068.5,187.5 Z"/></g>
<g><path style="opacity:0.004" fill="#000000" d="M 3251.5,187.5 C 3250.83,188.167 3250.83,188.167 3251.5,187.5 Z"/></g>
<g><path style="opacity:0.004" fill="#000000" d="M 3276.5,187.5 C 3277.83,188.167 3277.83,188.167 3276.5,187.5 Z"/></g>
<g><path style="opacity:0.004" fill="#000000" d="M 3495.5,187.5 C 3494.83,188.167 3494.83,188.167 3495.5,187.5 Z"/></g>
<g><path style="opacity:0.004" fill="#000000" d="M 3519.5,187.5 C 3520.83,188.167 3520.83,188.167 3519.5,187.5 Z"/></g>
<g><path style="opacity:0.004" fill="#000000" d="M 3551.5,187.5 C 3550.83,188.167 3550.83,188.167 3551.5,187.5 Z"/></g>
<g><path style="opacity:0.004" fill="#000000" d="M 3649.5,187.5 C 3648.83,188.167 3648.83,188.167 3649.5,187.5 Z"/></g>
<g><path style="opacity:1" fill="#728507" d="M 42.5,189.5 C 42.2219,193.446 41.0553,197.112 39,200.5C 38.502,203.482 38.3354,206.482 38.5,209.5C 37.3349,208.504 36.6682,207.171 36.5,205.5C 37.5417,199.696 39.5417,194.363 42.5,189.5 Z"/></g>
<g><path style="opacity:0.004" fill="#000000" d="M 2930.5,221.5 C 2931.83,222.167 2931.83,222.167 2930.5,221.5 Z"/></g>
<g><path style="opacity:0.004" fill="#000000" d="M 60.5,223.5 C 61.8333,224.167 61.8333,224.167 60.5,223.5 Z"/></g>
</svg>
